# File created by Blade
# Date/Time:  Thu Sep 25 19:36:54 2014
# Frame Rate: 120.000 fps
#------------------------------------------------------
:FULLY-SPECIFIED
:DEGREES
675
root 0.940329 34.082876 -1.600402 103.219828 1.543822 -32.502506
Spine -36.478294 -3.239611 14.132927
Head -51.391954 31.586059 17.694664
LeftShoulder -17.061444 1.430943 46.495194
LeftArm 50.466872 -49.115518 -17.861785
LeftForeArm 16.263999 0.000000 16.076154
LeftHand -28.775832 -0.000000 -1.746671
LeftHandThumb1 -26.253704 0.000000 33.147579
RightShoulder -26.764470 1.752256 -31.608449
RightArm -31.443638 -21.778776 52.647280
RightForeArm -45.150697 -0.000000 11.402197
RightHand -1.567100 -0.000000 22.787617
RightHandThumb1 -24.326973 -0.000000 -32.862282
LeftUpLeg -101.642726 26.555217 -3.871957
LeftLeg -10.288611 -0.000000 0.000000
LeftFoot -0.050230 10.802884 -8.901189
LeftToeBase 5.853743 -0.000000 -0.000000
RightUpLeg 18.888314 19.065076 -30.864079
RightLeg 99.539163 -0.000000 -0.000000
RightFoot 30.925915 -17.044903 18.972485
RightToeBase 8.945891 -0.000000 -0.000000
676
root 0.943935 34.082281 -1.600434 103.232962 1.493209 -32.538200
Spine -36.506352 -3.213914 14.111423
Head -51.356682 31.589091 17.742735
LeftShoulder -17.058649 1.428080 46.545915
LeftArm 50.416762 -49.087497 -17.801911
LeftForeArm 16.128951 0.000000 16.118417
LeftHand -28.823585 -0.000000 -1.380212
LeftHandThumb1 -26.253704 0.000000 33.147579
RightShoulder -26.767357 1.774655 -31.584367
RightArm -31.457229 -21.861136 52.663183
RightForeArm -45.193633 -0.000000 11.386438
RightHand -1.609876 -0.000000 22.917838
RightHandThumb1 -24.326973 -0.000000 -32.862282
LeftUpLeg -101.596289 26.588169 -3.942704
LeftLeg -10.418391 -0.000000 0.000000
LeftFoot -0.108290 10.802501 -9.199819
LeftToeBase 6.178504 -0.000000 -0.000000
RightUpLeg 18.854630 19.115520 -30.845522
RightLeg 99.543616 -0.000000 -0.000000
RightFoot 30.954596 -17.064811 18.985494
RightToeBase 8.935533 -0.000000 -0.000000
677
root 0.949136 34.082029 -1.599861 103.255873 1.436049 -32.546382
Spine -36.548854 -3.218416 14.098630
Head -51.336295 31.577880 17.807466
LeftShoulder -17.074152 1.453726 46.552877
LeftArm 50.408221 -49.116299 -17.717390
LeftForeArm 16.172903 0.000000 16.110002
LeftHand -28.735929 0.000000 -1.478841
LeftHandThumb1 -26.253704 0.000000 33.147579
RightShoulder -26.756955 1.868801 -31.585782
RightArm -31.539130 -21.948378 52.672323
RightForeArm -45.272512 -0.000000 11.407096
RightHand -1.613144 -0.000000 22.947953
RightHandThumb1 -24.326973 -0.000000 -32.862282
LeftUpLeg -101.563894 26.586560 -3.994324
LeftLeg -10.500379 -0.000000 0.000000
LeftFoot -0.086770 10.776206 -9.281085
LeftToeBase 6.177000 -0.000000 -0.000000
RightUpLeg 18.827300 19.135031 -30.834228
RightLeg 99.538807 -0.000000 -0.000000
RightFoot 30.966643 -17.105821 19.041971
RightToeBase 8.828401 -0.000000 -0.000000
678
root 0.955395 34.081822 -1.599886 103.265987 1.370241 -32.548795
Spine -36.568992 -3.231766 14.067539
Head -51.344014 31.573474 17.897955
LeftShoulder -17.108020 1.523594 46.542780
LeftArm 50.529745 -49.241563 -17.742278
LeftForeArm 16.330681 -0.000000 16.063955
LeftHand -28.500596 -0.000000 -1.533347
LeftHandThumb1 -26.253704 0.000000 33.147579
RightShoulder -26.783374 1.843638 -31.545560
RightArm -31.466121 -22.014543 52.681104
RightForeArm -45.273165 -0.000000 11.382157
RightHand -1.664319 -0.000000 22.998889
RightHandThumb1 -24.326973 -0.000000 -32.862282
LeftUpLeg -101.528174 26.576638 -4.037022
LeftLeg -10.555542 -0.000000 0.000000
LeftFoot -0.067727 10.782287 -9.299730
LeftToeBase 6.237722 -0.000000 -0.000000
RightUpLeg 18.817925 19.151051 -30.832465
RightLeg 99.532631 -0.000000 -0.000000
RightFoot 30.969749 -17.112772 19.048503
RightToeBase 8.826570 -0.000000 -0.000000
679
root 0.961542 34.080737 -1.601282 103.267305 1.313435 -32.529124
Spine -36.579838 -3.237245 14.046253
Head -51.370475 31.524087 17.951575
LeftShoulder -17.106503 1.460939 46.577091
LeftArm 50.491693 -49.220800 -17.667958
LeftForeArm 16.306828 -0.000000 16.084533
LeftHand -28.829506 -0.000000 -1.189775
LeftHandThumb1 -26.253704 0.000000 33.147579
RightShoulder -26.805506 1.847639 -31.540126
RightArm -31.464938 -22.072169 52.700990
RightForeArm -45.272996 -0.000000 11.364136
RightHand -1.651024 0.000000 23.008692
RightHandThumb1 -24.326973 -0.000000 -32.862282
LeftUpLeg -101.503660 26.544325 -4.056399
LeftLeg -10.563603 -0.000000 0.000000
LeftFoot -0.061303 10.784535 -9.371276
LeftToeBase 6.150343 -0.000000 -0.000000
RightUpLeg 18.833328 19.111175 -30.833905
RightLeg 99.526947 -0.000000 -0.000000
RightFoot 30.931445 -17.123509 18.845054
RightToeBase 8.906093 -0.000000 -0.000000
680
root 0.969012 34.078788 -1.603253 103.270820 1.230189 -32.511750
Spine -36.593725 -3.248697 13.977503
Head -51.347524 31.497689 18.110358
LeftShoulder -17.103829 1.385120 46.611772
LeftArm 50.502534 -49.238735 -17.620980
LeftForeArm 16.406259 -0.000000 16.092806
LeftHand -28.711023 -0.000000 -1.197381
LeftHandThumb1 -26.253704 0.000000 33.147579
RightShoulder -26.820846 1.819323 -31.497980
RightArm -31.448965 -22.076625 52.689475
RightForeArm -45.270709 -0.000000 11.343247
RightHand -1.605208 -0.000000 22.930982
RightHandThumb1 -24.326973 -0.000000 -32.862282
LeftUpLeg -101.486277 26.510843 -4.077962
LeftLeg -10.542348 -0.000000 0.000000
LeftFoot -0.097476 10.816725 -9.365383
LeftToeBase 6.179795 -0.000000 -0.000000
RightUpLeg 18.857622 19.077628 -30.869754
RightLeg 99.518736 -0.000000 -0.000000
RightFoot 30.838505 -17.157632 18.790252
RightToeBase 8.944875 -0.000000 -0.000000
681
root 0.975550 34.076827 -1.606961 103.266701 1.163509 -32.499441
Spine -36.592462 -3.247963 13.937484
Head -51.373989 31.425817 18.201570
LeftShoulder -17.110351 1.316946 46.618949
LeftArm 50.532345 -49.273628 -17.588185
LeftForeArm 16.477092 -0.000000 16.113220
LeftHand -28.663597 -0.000000 -1.268863
LeftHandThumb1 -26.253704 0.000000 33.147579
RightShoulder -26.847614 1.733869 -31.493285
RightArm -31.359243 -22.035093 52.699397
RightForeArm -45.275996 -0.000000 11.289598
RightHand -1.626570 0.000000 22.966453
RightHandThumb1 -24.326973 -0.000000 -32.862282
LeftUpLeg -101.488011 26.472651 -4.119132
LeftLeg -10.513142 -0.000000 0.000000
LeftFoot -0.110173 10.835681 -9.290925
LeftToeBase 6.172597 -0.000000 -0.000000
RightUpLeg 18.874599 19.060125 -30.903488
RightLeg 99.506745 -0.000000 -0.000000
RightFoot 30.784327 -17.195126 18.769333
RightToeBase 9.012220 -0.000000 -0.000000
